# xmcd
#
# Track frame offsets:
#	188
#	13288
#	27013
#	46813
#	58363
#	71638
#	84913
#	96988
#	109738
#	126238
#	140038
#	168013
#	184588
#
# Disc length: 2622 seconds
#
# Revision: 0
# Processed by: cddbd v1.5.1PL0 Copyright (c) Steve Scherf et al.
# Submitted via: audiograbber 1.82.01
#
DISCID=b00a3c0d
DTITLE=Original Hits - Lo Mejor del SOUL -cd2
DYEAR=1900
DGENRE=Soul
TTITLE0=Martha Reeves - Jimmy Mack
TTITLE1=Ben E. King - Stand By Me
TTITLE2=Gladys Morton - Change Our World
TTITLE3=Sam and Dave - Soul Man
TTITLE4=Percy Sledge - When A Man Loves A Woman
TTITLE5=Atlantic Soul Machine - Tramp
TTITLE6=The Shirelles - Will you love me tomorrow
TTITLE7=Mary Wells - My Guy
TTITLE8=Tony Wilson - Raise Your Hand
TTITLE9=Sam Cooke - The last mile on the way
TTITLE10=The Dells - Stay in my corner
TTITLE11=The Souls Fingers - Give it up
TTITLE12=Phil Upchurch - Tell it like it is
EXTD=
EXTT0=
EXTT1=
EXTT2=
EXTT3=
EXTT4=
EXTT5=
EXTT6=
EXTT7=
EXTT8=
EXTT9=
EXTT10=
EXTT11=
EXTT12=
PLAYORDER=
